<svg xmlns="http://www.w3.org/2000/svg" viewBox="99.1 269.2 177.303 64.698">
  <defs>
    <style>
      .cls-1 {
        fill: #fff;
      }
    </style>
  </defs>
  <g id="logo_1_" transform="translate(0.4 50)">
    <g id="Group_12" data-name="Group 12">
      <g id="Group_11" data-name="Group 11">
        <path id="Path_73" data-name="Path 73" class="cls-1" d="M126.9,261.7a10.567,10.567,0,0,0-7.8,3.2,3.915,3.915,0,0,0-.8,1,3.915,3.915,0,0,1-.8-1,10.636,10.636,0,0,0-7.8-3.2,10.968,10.968,0,0,0-7.8,3.2,10.636,10.636,0,0,0-3.2,7.8v11h4.7v-11a5.762,5.762,0,0,1,1.9-4.4,6.134,6.134,0,0,1,4.4-1.9,5.762,5.762,0,0,1,4.4,1.9,6.134,6.134,0,0,1,1.9,4.4v11h4.6v-11a5.762,5.762,0,0,1,1.9-4.4,6.134,6.134,0,0,1,4.4-1.9,5.762,5.762,0,0,1,4.4,1.9,6.134,6.134,0,0,1,1.9,4.4v11h4.7v-11a10.968,10.968,0,0,0-3.2-7.8A10.567,10.567,0,0,0,126.9,261.7Z"/>
        <path id="Path_74" data-name="Path 74" class="cls-1" d="M151.9,261.7a10.926,10.926,0,0,0-11,11,10.968,10.968,0,0,0,3.2,7.8,10.636,10.636,0,0,0,7.8,3.2,10.968,10.968,0,0,0,7.8-3.2,10.636,10.636,0,0,0,3.2-7.8,10.968,10.968,0,0,0-3.2-7.8A10.414,10.414,0,0,0,151.9,261.7Zm4.4,15.3a6.134,6.134,0,0,1-4.4,1.9,5.762,5.762,0,0,1-4.4-1.9,6.134,6.134,0,0,1-1.9-4.4,5.762,5.762,0,0,1,1.9-4.4,6.134,6.134,0,0,1,4.4-1.9,5.762,5.762,0,0,1,4.4,1.9,6.134,6.134,0,0,1,1.9,4.4A5.618,5.618,0,0,1,156.3,277Z"/>
        <path id="Path_75" data-name="Path 75" class="cls-1" d="M191,261.7a10.926,10.926,0,0,0-11,11v11h4.7v-11a5.762,5.762,0,0,1,1.9-4.4,6.134,6.134,0,0,1,4.4-1.9,5.762,5.762,0,0,1,4.4,1.9,6.134,6.134,0,0,1,1.9,4.4v11H202v-11a10.968,10.968,0,0,0-3.2-7.8A10.413,10.413,0,0,0,191,261.7Z"/>
        <rect id="Rectangle_17" data-name="Rectangle 17" class="cls-1" width="4.7" height="21.9" transform="translate(205.1 261.7)"/>
        <path id="Path_76" data-name="Path 76" class="cls-1" d="M214,231.1a11.268,11.268,0,0,0-8.1-3.4,11.688,11.688,0,0,0-8.1,3.4,11.268,11.268,0,0,0-3.4,8.1,10.829,10.829,0,0,0,2.1,6.6c-2.1,0-4.3.1-6.1-1.3a8.649,8.649,0,0,1-2.6-5.2c-.1-.3-.2-4.8-.3-6.2h-4.7v22.1a6.129,6.129,0,0,1-1.9,4.5,6.19,6.19,0,0,1-4.5,1.9,10.769,10.769,0,0,0-7.2,3.1,10.636,10.636,0,0,0-3.2,7.8v11h4.7v-11a6.309,6.309,0,0,1,4.4-5.9,8.917,8.917,0,0,1,2.8-.3,20.479,20.479,0,0,0,2.4-.5,12.024,12.024,0,0,0,4-2.6,10.414,10.414,0,0,0,3.2-7.8v-6.8a11.235,11.235,0,0,0,6.9,2.3h11.5a11.6,11.6,0,0,0,8.1-19.8ZM210.6,244a6.258,6.258,0,0,1-4.7,1.9,5.911,5.911,0,0,1-4.7-1.9,6.258,6.258,0,0,1-1.9-4.7,6.412,6.412,0,0,1,1.9-4.7,6.258,6.258,0,0,1,4.7-1.9,6.412,6.412,0,0,1,4.7,1.9,6.258,6.258,0,0,1,1.9,4.7A6.046,6.046,0,0,1,210.6,244Z"/>
        <path id="Path_77" data-name="Path 77" class="cls-1" d="M177.1,239.5V228h-4.9v11.5a6.412,6.412,0,0,1-1.9,4.7,6.258,6.258,0,0,1-4.7,1.9,6.412,6.412,0,0,1-4.7-1.9,6.258,6.258,0,0,1-1.9-4.7V228c0-.1-.3-.1-.8-.1a29.963,29.963,0,0,0-5.3.6c-3.9,1.5-7.1,4-7.9,8.2-.5,3-.4,6.5-1.9,9.2a6.034,6.034,0,0,1-5.4,2.8,6.412,6.412,0,0,1-4.7-1.9c-2.4-2.4-1.9-6.2-1.9-9.3v-6.9h-4.9v11.5a11.455,11.455,0,0,0,19.6,8.1,12.6,12.6,0,0,0,3.4-8c.3-2.2.3-5.8,2-7.4a8.108,8.108,0,0,1,2.8-1.7v6.3a11.1,11.1,0,0,0,3.4,8.1,11.268,11.268,0,0,0,8.1,3.4,11.1,11.1,0,0,0,8.1-3.4A10.265,10.265,0,0,0,177.1,239.5Z"/>
        <circle id="Ellipse_5" data-name="Ellipse 5" class="cls-1" cx="2.5" cy="2.5" r="2.5" transform="translate(163.8 219.3)"/>
        <circle id="Ellipse_6" data-name="Ellipse 6" class="cls-1" cx="2.5" cy="2.5" r="2.5" transform="translate(205 255.5)"/>
        <circle id="Ellipse_7" data-name="Ellipse 7" class="cls-1" cx="2.5" cy="2.5" r="2.5" transform="translate(137.8 255.5)"/>
        <circle id="Ellipse_8" data-name="Ellipse 8" class="cls-1" cx="2.5" cy="2.5" r="2.5" transform="translate(131.1 255.5)"/>
      </g>
    </g>
    <path id="Path_78" data-name="Path 78" class="cls-1" d="M251.1,257h-1.3c.1-2.8.3-5.6.3-8.4h1.6l.3,8.4Zm-.7-18h1.1c.1,1.7.1,3.5.1,5.3h-1.4c.1-1.8.2-3.6.2-5.3m.2-6.6h.9c0,1.2.1,2.4.1,3.7h-.9c-.1-1.2-.1-2.5-.1-3.7m.1-4.7h.6a24.367,24.367,0,0,0,.1,2.7h-.7v-2.7m0-3.6h.5v2.1h-.5v-2.1m.1-2.8h.4v1.6h-.5Zm-.2-2.1h0a3.241,3.241,0,0,0-2.8,2.2c-1.2,3.1-2.4,6.3-3.5,9.4-2.7,7.2-5.5,14.5-8.1,21.7-3.3,8.8-6.7,17.7-10,26.5a3.345,3.345,0,0,0,5,4.1c2.5-1.6,5-3.3,7.4-5,3.5-2.3,7-4.7,10.5-7,.1-2.3.3-4.7.4-7.2h2.9q.15,3.75.3,7.2c3.5,2.3,7.1,4.7,10.6,7.1,2.5,1.7,4.9,3.3,7.4,5a3.2,3.2,0,0,0,4.7-.8,3.265,3.265,0,0,0,.3-3.3c-3.3-8.8-6.7-17.7-10-26.5-2.7-7.2-5.5-14.5-8.1-21.7-1.2-3.1-2.3-6.3-3.5-9.4a2.881,2.881,0,0,0-2.7-2.2v1.2H251v-1.2c-.3-.1-.3-.1-.4-.1"/>
  </g>
</svg>
